<svg width="1600" height="720" viewBox="0 0 1600 720" xmlns="http://www.w3.org/2000/svg">
  <rect width="1600" height="720" fill="#f7f9fc"/><rect width="1600" height="720" fill="#1f6feb" opacity="0.08"/>
  <g transform="translate(140 124) scale(1.4)"><rect width="128" height="128" rx="18" fill="#1f6feb"/><rect x="30" y="24" width="68" height="82" rx="9" fill="#fff"/><path d="M45 50l7 7 16-18" fill="none" stroke="#1f6feb" stroke-width="7" stroke-linecap="round" stroke-linejoin="round"/><rect x="72" y="47" width="16" height="6" rx="3" fill="#1f6feb"/><path d="M45 78l7 7 16-18" fill="none" stroke="#1f6feb" stroke-width="7" stroke-linecap="round" stroke-linejoin="round"/><rect x="72" y="75" width="16" height="6" rx="3" fill="#1f6feb"/>
</g>
  <text x="140" y="396" fill="#172033" font-family="Ubuntu, Arial, sans-serif" font-size="86" font-weight="700">NextTasks</text>
  <text x="144" y="466" fill="#42526e" font-family="Ubuntu, Arial, sans-serif" font-size="34">Native but simple Ubuntu Touch client for Nextcloud Tasks</text>
  <text x="144" y="528" fill="#42526e" font-family="Ubuntu, Arial, sans-serif" font-size="28">Ubuntu Touch, Online Accounts, offline-first foundation</text>
  <g transform="translate(1000 120)"><rect width="430" height="510" rx="34" fill="#172033" opacity="0.12"/><rect x="18" y="18" width="394" height="474" rx="28" fill="#fff"/><rect x="54" y="62" width="36" height="36" rx="18" fill="#1f6feb"/><rect x="112" y="68" width="220" height="24" rx="12" fill="#dce7f7"/><rect x="54" y="148" width="322" height="76" rx="12" fill="#f7f9fc"/><rect x="78" y="174" width="190" height="15" rx="7" fill="#172033" opacity="0.75"/><rect x="78" y="199" width="246" height="12" rx="6" fill="#42526e" opacity="0.38"/><rect x="54" y="248" width="322" height="76" rx="12" fill="#f7f9fc"/><rect x="78" y="274" width="156" height="15" rx="7" fill="#172033" opacity="0.75"/><rect x="78" y="299" width="218" height="12" rx="6" fill="#42526e" opacity="0.38"/></g>
</svg>
